<svg viewBox="0 0 234.85 200" xmlns="http://www.w3.org/2000/svg" fill="currentColor">
<g>
	<path d="M227.72,86.07l-43.93-73.13C178.94,4.93,170.27,0,160.94,0H73.91c-9.33,0-18,4.93-22.85,12.95L7.13,86.07
		c-5.17,8.56-5.17,19.28,0,27.89l43.92,73.11c4.85,8,13.53,12.93,22.85,12.93h87.03c9.33,0,18-4.92,22.85-12.93l43.93-73.11
		C232.89,105.36,232.89,94.63,227.72,86.07z M213.75,112.19l-38.36,63.85c-4.24,6.99-11.81,11.29-19.96,11.29H79.42
		c-8.15,0-15.72-4.3-19.96-11.29L21.1,112.19c-4.51-7.52-4.51-16.88,0-24.36l38.36-63.87c4.24-7,11.81-11.31,19.96-11.31h76.01
		c8.15,0,15.72,4.3,19.96,11.31l38.36,63.87C218.27,95.31,218.27,104.68,213.75,112.19z"/>
	<g id="XMLID_00000108306590351078262310000016656168218510676646_">
		<path id="XMLID_00000011001227266369269340000006548198384635732099_" d="M73.21,93.97l17.74-29.25c1.95-3.21,5.44-5.18,9.2-5.18
			h48.29V36.57c0-2.04-1.65-3.7-3.69-3.7H85.13c-3.76,0-7.25,1.97-9.2,5.18L42.02,93.97c-2.08,3.42-2.08,7.72,0,11.16l33.91,55.91
			c1.95,3.21,5.44,5.18,9.2,5.18h59.62c2.04,0,3.69-1.65,3.69-3.7v-22.97h-48.29c-3.76,0-7.25-1.97-9.2-5.18l-17.74-29.25
			C71.13,101.69,71.13,97.39,73.21,93.97z"/>
		<path id="XMLID_00000155120375023282326760000004453570925528300964_" d="M170.81,59.54h-22.38v26.21h-39.29
			c-1.73,0-3.34,0.91-4.24,2.39l-5.35,8.82c-0.96,1.58-0.96,3.56,0,5.14l5.35,8.82c0.9,1.48,2.51,2.38,4.24,2.38h39.29v26.22h22.38
			c1.73,0,3.34-0.91,4.24-2.39l21.25-35.04c0.96-1.58,0.96-3.57,0-5.14l-21.25-35.05C174.15,60.45,172.54,59.54,170.81,59.54z"/>
	</g>
</g>
</svg>
