<svg viewBox="0 0 234.85 200" xmlns="http://www.w3.org/2000/svg" fill="currentColor">
<path d="M227.72,86.07l-43.93-73.13C178.94,4.93,170.27,0,160.94,0H73.91c-9.33,0-18,4.93-22.85,12.95L7.13,86.07
	c-5.17,8.56-5.17,19.28,0,27.89l43.92,73.11c4.85,8,13.53,12.93,22.85,12.93h87.03c9.33,0,18-4.92,22.85-12.93l43.93-73.11
	C232.89,105.36,232.89,94.63,227.72,86.07z M196.3,102.09l-21.25,35.04c-0.9,1.48-2.51,2.39-4.24,2.39h-22.38V113.3h-39.29
	c-1.73,0-3.34-0.9-4.24-2.38l-5.35-8.82c-0.96-1.58-0.96-3.56,0-5.14l5.35-8.82c0.9-1.48,2.51-2.39,4.24-2.39h39.29V59.54h-48.28
	c-3.76,0-7.25,1.97-9.2,5.18L73.21,93.97c-2.08,3.42-2.08,7.72,0,11.15l17.74,29.25c1.95,3.21,5.44,5.18,9.2,5.18h48.29v22.97
	c0,2.05-1.65,3.7-3.69,3.7H85.13c-3.76,0-7.25-1.97-9.2-5.18l-33.91-55.91c-2.08-3.44-2.08-7.74,0-11.16l33.91-55.92
	c1.95-3.21,5.44-5.18,9.2-5.18h59.62c2.04,0,3.69,1.66,3.69,3.7v22.97h22.37c1.73,0,3.34,0.91,4.24,2.36l21.25,35.05
	C197.26,98.52,197.26,100.51,196.3,102.09z"/>
</svg>
