<svg viewBox="0 0 234.85 200" xmlns="http://www.w3.org/2000/svg" fill="currentColor">
<g id="XMLID_1678_">
	<g id="XMLID_1679_">
		<g id="XMLID_1680_">
			<path id="XMLID_1682_" d="M49.12,91.64l26.61-43.87c2.93-4.83,8.16-7.77,13.8-7.77h72.44V5.55c0-3.06-2.48-5.55-5.54-5.55H67
				c-5.64,0-10.87,2.95-13.8,7.77L2.34,91.64c-3.12,5.15-3.12,11.59,0,16.74l50.87,83.86c2.93,4.83,8.16,7.77,13.8,7.77h89.42
				c3.06,0,5.54-2.47,5.54-5.54v-34.45H89.53c-5.64,0-10.87-2.96-13.8-7.77l-26.61-43.87C46.01,103.23,46.01,96.78,49.12,91.64z"/>
			<path id="XMLID_1681_" d="M195.53,40h-33.56v39.32h-58.93c-2.61,0-5.01,1.36-6.36,3.58l-8.03,13.24c-1.44,2.38-1.44,5.35,0,7.73
				l8.03,13.22c1.35,2.23,3.76,3.58,6.36,3.58h58.93v39.33h33.56c2.6,0,5.01-1.36,6.36-3.58l31.88-52.56c1.44-2.38,1.44-5.35,0-7.73
				l-31.88-52.56C200.54,41.37,198.13,40,195.53,40z"/>
		</g>
	</g>
</g>
</svg>
